# xmcd CD database file
#
# Track frame offsets:
#	150
#	38412
#	58785
#	80850
#	104217
#	115560
#	147207
#	173722
#	192770
#	224297
#	247855
#
# Disc length: 3544 seconds
#
# Revision: 0
# Processed by: cddbd v1.4PL0 Copyright (c) Steve Scherf et al.
# Submitted via: CDex 1.50Beta7
#
DISCID=950dd60b
DTITLE=Various Artist - Verve Jazz Masters
DYEAR=1900
DGENRE=Jazz
TTITLE0=Peter Delano-Spontaenous ID
TTITLE1=Laura Fygi-Tell Me About It
TTITLE2=Billie Holiday-A Foggy Day
TTITLE3=Sadao Watanabe-Till We Meet Again
TTITLE4=Fred Astaire-Steppin' Out with my Baby
TTITLE5=Peter Delano-Sunrise Remembered
TTITLE6=Joe Louis Walker-Hold On
TTITLE7=Laura Fygi-Corcovado
TTITLE8=Billie Holiday-Day In, Day Out
TTITLE9=Sadao Watanabe-We'll Never Know
TTITLE10=Fred Astaire-Top Hat, White Tie and Tails
EXTD=
EXTT0=
EXTT1=
EXTT2=
EXTT3=
EXTT4=
EXTT5=
EXTT6=
EXTT7=
EXTT8=
EXTT9=
EXTT10=
PLAYORDER=
